<svg width="60" height="60" viewBox="0 0 60 60" fill="none" xmlns="http://www.w3.org/2000/svg">
<path d="M26.2477 0C11.7783 0 0.000976562 9.58755 0.000976562 21.3723C0.000976562 27.3416 3.0006 32.9396 8.29869 36.9666C6.61515 39.5838 4.28294 42.4672 1.4258 43.1758C0.522161 43.4008 -0.0815131 44.2557 0.0122252 45.1819C0.102214 46.1117 0.867118 46.8279 1.797 46.8691C1.842 46.8691 2.00698 46.8766 2.27319 46.8766C4.2192 46.8766 11.6995 46.5654 20.1847 42.1635C22.1195 42.5497 24.1555 42.7447 26.2477 42.7447C40.7171 42.7447 52.4944 33.1571 52.4944 21.3723C52.4944 9.58755 40.7171 0 26.2477 0ZM26.2477 38.9951C24.1855 38.9951 22.1945 38.7814 20.3234 38.3577C19.8847 38.2565 19.4198 38.3202 19.0186 38.5377C15.3891 40.4949 11.9132 41.6198 9.05609 42.2647C10.3797 40.7199 11.4858 38.9951 12.4269 37.4016C12.9369 36.5392 12.6744 35.4293 11.8382 34.8819C6.69764 31.5148 3.75051 26.5917 3.75051 21.3723C3.75051 11.6535 13.8405 3.74953 26.2477 3.74953C38.6549 3.74953 48.7449 11.6535 48.7449 21.3723C48.7449 31.0874 38.6549 38.9951 26.2477 38.9951Z" fill="#333333"/>
<path d="M58.5794 56.2656C56.4347 55.7219 54.3612 53.9934 52.4077 51.1175C57.2521 47.368 59.993 42.2049 59.993 36.7081C59.993 34.1021 59.3706 31.5337 58.1445 29.0815C57.6796 28.1516 56.5434 27.7879 55.6286 28.2454C54.7024 28.7103 54.3275 29.8352 54.7887 30.7613C55.7523 32.6886 56.2435 34.6871 56.2435 36.7081C56.2435 41.4625 53.5438 45.9619 48.8382 49.0515C47.9983 49.5989 47.7433 50.7126 48.257 51.5749C49.1831 53.1385 50.1392 54.4846 51.1366 55.6169C48.5907 55.0883 45.5423 54.1321 42.359 52.4186C41.9653 52.2049 41.5003 52.1449 41.0654 52.2386C33.5288 53.8959 25.4111 51.9349 20.3267 47.4505C19.543 46.7605 18.3619 46.8393 17.6795 47.6154C16.9934 48.3916 17.0684 49.5764 17.8445 50.2626C23.66 55.3845 32.6852 57.6942 41.1929 56.0406C48.017 59.5502 54.1475 60.0001 56.8509 60.0001C57.7095 60.0001 58.2195 59.9551 58.302 59.9476C59.2094 59.8614 59.9255 59.134 59.993 58.2266C60.0605 57.3155 59.4643 56.4906 58.5794 56.2656Z" fill="#333333"/>
</svg>
