<svg width="32" height="32" viewBox="0 0 32 32" fill="none" xmlns="http://www.w3.org/2000/svg">
<path d="M11.9997 9.3335H7.99967C7.29243 9.3335 6.61415 9.61445 6.11406 10.1145C5.61396 10.6146 5.33301 11.2929 5.33301 12.0002V24.0002C5.33301 24.7074 5.61396 25.3857 6.11406 25.8858C6.61415 26.3859 7.29243 26.6668 7.99967 26.6668H19.9997C20.7069 26.6668 21.3852 26.3859 21.8853 25.8858C22.3854 25.3857 22.6663 24.7074 22.6663 24.0002V20.0002" stroke="#333333" stroke-width="1.3" stroke-linecap="round" stroke-linejoin="round"/>
<path d="M12 20.0001H16L27.3333 8.66681C27.8638 8.13637 28.1618 7.41695 28.1618 6.66681C28.1618 5.91666 27.8638 5.19724 27.3333 4.66681C26.8029 4.13637 26.0835 3.83838 25.3333 3.83838C24.5832 3.83838 23.8638 4.13637 23.3333 4.66681L12 16.0001V20.0001Z" stroke="#333333" stroke-width="1.3" stroke-linecap="round" stroke-linejoin="round"/>
<path d="M21.333 6.6665L25.333 10.6665" stroke="#333333" stroke-width="1.3" stroke-linecap="round" stroke-linejoin="round"/>
</svg>
