<svg width="32" height="32" viewBox="0 0 32 32" fill="none" xmlns="http://www.w3.org/2000/svg">
<path d="M7.99967 9.3335H23.9997C24.7069 9.3335 25.3852 9.61445 25.8853 10.1145C26.3854 10.6146 26.6663 11.2929 26.6663 12.0002V24.0002C26.6663 24.3538 26.5259 24.6929 26.2758 24.943C26.0258 25.193 25.6866 25.3335 25.333 25.3335H22.6663C22.3127 25.3335 21.9736 25.193 21.7235 24.943C21.4735 24.6929 21.333 24.3538 21.333 24.0002V21.3335C21.333 19.919 20.7711 18.5625 19.7709 17.5623C18.7707 16.5621 17.4142 16.0002 15.9997 16.0002C14.5852 16.0002 13.2286 16.5621 12.2284 17.5623C11.2282 18.5625 10.6663 19.919 10.6663 21.3335V24.0002C10.6663 24.3538 10.5259 24.6929 10.2758 24.943C10.0258 25.193 9.68663 25.3335 9.33301 25.3335H6.66634C6.31272 25.3335 5.97358 25.193 5.72353 24.943C5.47348 24.6929 5.33301 24.3538 5.33301 24.0002V12.0002C5.33301 11.2929 5.61396 10.6146 6.11406 10.1145C6.61415 9.61445 7.29243 9.3335 7.99967 9.3335" stroke="white" stroke-width="2.5" stroke-linecap="round" stroke-linejoin="round"/>
</svg>
