<svg width="259" height="63" viewBox="0 0 259 63" fill="none" xmlns="http://www.w3.org/2000/svg">
<path fill-rule="evenodd" clip-rule="evenodd" d="M29.2301 29.8557V29.8649C29.4038 29.8618 29.5777 29.8603 29.7518 29.8603C37.6424 29.8603 45.2099 33.0063 50.7894 38.6061C56.3689 44.206 59.5034 51.8011 59.5034 59.7205H29.7518H0.000203393C0.000203421 59.5305 0.00200775 59.3407 0.00560685 59.1511H0.000406795V0.156258C0.000135664 0.104186 0 0.0521003 0 0L29.7516 3.11158e-06L59.5032 1.02308e-05C59.5032 7.91944 56.3687 15.5145 50.7892 21.1144C45.2097 26.7143 37.6422 29.8603 29.7516 29.8603C29.5776 29.8603 29.4037 29.8587 29.2301 29.8557Z" fill="white"/>
<path d="M108.218 27.3698C110.058 28.3332 111.497 29.6579 112.537 31.3439C113.577 33.0298 114.097 34.9767 114.097 37.1845C114.097 40.6367 112.877 43.5068 110.438 45.7949C107.998 48.083 105.018 49.227 101.499 49.227H83.5005V7.07817H100.179C103.618 7.07817 106.518 8.20214 108.878 10.4501C111.277 12.6579 112.477 15.4277 112.477 18.7594C112.477 22.4123 111.058 25.2825 108.218 27.3698ZM100.179 13.5811H90.3997V24.6603H100.179C101.699 24.6603 102.978 24.1384 104.018 23.0947C105.058 22.0109 105.578 20.6862 105.578 19.1207C105.578 17.5552 105.058 16.2506 104.018 15.2069C102.978 14.1231 101.699 13.5811 100.179 13.5811ZM101.499 42.724C103.098 42.724 104.438 42.162 105.518 41.0381C106.638 39.874 107.198 38.469 107.198 36.8232C107.198 35.1774 106.638 33.7925 105.518 32.6685C104.438 31.5044 103.098 30.9224 101.499 30.9224H90.3997V42.724H101.499Z" fill="white"/>
<path d="M126.177 24.1786C127.817 20.4454 130.896 18.5788 135.416 18.5788V25.6237C132.936 25.4631 130.776 26.0652 128.937 27.43C127.097 28.7547 126.177 30.9625 126.177 34.0534V49.227H119.698V19.1207H126.177V24.1786Z" fill="white"/>
<path d="M146.323 13.4005C145.523 14.2033 144.563 14.6047 143.443 14.6047C142.323 14.6047 141.343 14.2033 140.503 13.4005C139.703 12.5575 139.303 11.574 139.303 10.4501C139.303 9.32611 139.703 8.36271 140.503 7.55988C141.303 6.7169 142.283 6.29541 143.443 6.29541C144.603 6.29541 145.583 6.7169 146.383 7.55988C147.182 8.36271 147.582 9.32611 147.582 10.4501C147.582 11.574 147.163 12.5575 146.323 13.4005ZM140.203 49.227V19.1207H146.683V49.227H140.203Z" fill="white"/>
<path d="M177.963 7.07817H184.442V49.227H177.963V44.8917C175.523 48.3037 172.024 50.0098 167.464 50.0098C163.345 50.0098 159.825 48.4844 156.905 45.4336C153.986 42.3427 152.526 38.5894 152.526 34.1738C152.526 29.7181 153.986 25.9649 156.905 22.9141C159.825 19.8633 163.345 18.3379 167.464 18.3379C172.024 18.3379 175.523 20.0239 177.963 23.3958V7.07817ZM161.705 41.0983C163.505 42.9047 165.764 43.8079 168.484 43.8079C171.204 43.8079 173.464 42.9047 175.263 41.0983C177.063 39.2518 177.963 36.9436 177.963 34.1738C177.963 31.4041 177.063 29.116 175.263 27.3096C173.464 25.4631 171.204 24.5398 168.484 24.5398C165.764 24.5398 163.505 25.4631 161.705 27.3096C159.905 29.116 159.005 31.4041 159.005 34.1738C159.005 36.9436 159.905 39.2518 161.705 41.0983Z" fill="white"/>
<path d="M215.872 19.1207H222.231V47.8421C222.231 52.4183 220.731 55.9307 217.732 58.3793C214.732 60.828 211.092 62.0523 206.813 62.0523C199.894 62.0523 195.154 59.6237 192.594 54.7666L198.174 51.5151C199.734 54.606 202.653 56.1514 206.933 56.1514C209.733 56.1514 211.912 55.4088 213.472 53.9236C215.072 52.4785 215.872 50.4513 215.872 47.8421V44.1691C213.432 47.6615 209.953 49.4076 205.433 49.4076C201.194 49.4076 197.614 47.9023 194.694 44.8917C191.775 41.8409 190.315 38.1679 190.315 33.8728C190.315 29.5776 191.775 25.9247 194.694 22.9141C197.614 19.8633 201.194 18.3379 205.433 18.3379C209.953 18.3379 213.432 20.0841 215.872 23.5764V19.1207ZM199.494 40.6166C201.334 42.423 203.613 43.3262 206.333 43.3262C209.053 43.3262 211.312 42.423 213.112 40.6166C214.952 38.8102 215.872 36.5623 215.872 33.8728C215.872 31.1833 214.952 28.9353 213.112 27.129C211.312 25.3226 209.053 24.4194 206.333 24.4194C203.613 24.4194 201.334 25.3226 199.494 27.129C197.694 28.9353 196.794 31.1833 196.794 33.8728C196.794 36.5623 197.694 38.8102 199.494 40.6166Z" fill="white"/>
<path d="M234.883 36.9436C235.363 39.2317 236.463 40.9979 238.182 42.2423C239.902 43.4466 242.002 44.0487 244.482 44.0487C247.921 44.0487 250.501 42.8043 252.221 40.3155L257.56 43.4466C254.601 47.822 250.221 50.0098 244.422 50.0098C239.542 50.0098 235.603 48.5245 232.603 45.554C229.603 42.5434 228.104 38.75 228.104 34.1738C228.104 29.678 229.583 25.9247 232.543 22.9141C235.503 19.8633 239.302 18.3379 243.942 18.3379C248.341 18.3379 251.941 19.8834 254.741 22.9743C257.58 26.0652 259 29.8185 259 34.2341C259 34.9165 258.92 35.8197 258.76 36.9436H234.883ZM234.823 31.6449H252.461C252.021 29.1963 251.001 27.3497 249.401 26.1054C247.841 24.861 246.002 24.2388 243.882 24.2388C241.482 24.2388 239.482 24.9011 237.883 26.2258C236.283 27.5505 235.263 29.3568 234.823 31.6449Z" fill="white"/>
</svg>
