<svg width="32" height="32" viewBox="0 0 32 32" fill="none" xmlns="http://www.w3.org/2000/svg">
<path d="M27.9997 18.6667L23.9997 14.6667H14.6663C14.3127 14.6667 13.9736 14.5262 13.7235 14.2761C13.4735 14.0261 13.333 13.687 13.333 13.3333V5.33333C13.333 4.97971 13.4735 4.64057 13.7235 4.39052C13.9736 4.14048 14.3127 4 14.6663 4H26.6663C27.02 4 27.3591 4.14048 27.6092 4.39052C27.8592 4.64057 27.9997 4.97971 27.9997 5.33333V18.6667Z" fill="white" stroke="white" stroke-width="2.5" stroke-linecap="round" stroke-linejoin="round"/>
<path d="M18.6667 16V22.6668C18.6667 23.0205 18.5262 23.3596 18.2761 23.6096C18.0261 23.8597 17.687 24.0002 17.3333 24.0002H8L4 28.0002V14.6668C4 14.3132 4.14048 13.9741 4.39052 13.724C4.64057 13.474 4.97971 13.3335 5.33333 13.3335H12.5" fill="white"/>
<path d="M18.6667 16V22.6668C18.6667 23.0205 18.5262 23.3596 18.2761 23.6096C18.0261 23.8597 17.687 24.0002 17.3333 24.0002H8L4 28.0002V14.6668C4 14.3132 4.14048 13.9741 4.39052 13.724C4.64057 13.474 4.97971 13.3335 5.33333 13.3335H12.5" stroke="white" stroke-width="2.5" stroke-linecap="round" stroke-linejoin="round"/>
</svg>
