<svg width="20" height="18" viewBox="0 0 20 18" fill="none" xmlns="http://www.w3.org/2000/svg">
<path d="M3.49982 9.00107H18.9996M19 9L1.73884 16.9663C1.64048 17.0022 1.53369 17.0096 1.43117 16.9876C1.32865 16.9656 1.2347 16.9151 1.16051 16.8422C1.08631 16.7692 1.03497 16.6769 1.0126 16.5761C0.990228 16.4753 0.997761 16.3703 1.0343 16.2736L3.50018 9L1.0343 1.72645C0.997761 1.62973 0.990228 1.52474 1.0126 1.42393C1.03497 1.32313 1.08631 1.23077 1.16051 1.15781C1.2347 1.08486 1.32865 1.03438 1.43117 1.01239C1.53369 0.990392 1.64048 0.997798 1.73884 1.03373L19 9Z" stroke="#393939" stroke-width="1.5" stroke-linecap="round" stroke-linejoin="round"/>
</svg>
