<svg width="32" height="32" viewBox="0 0 32 32" fill="none" xmlns="http://www.w3.org/2000/svg">
<path d="M16 28C22.6274 28 28 22.6274 28 16C28 9.37258 22.6274 4 16 4C9.37258 4 4 9.37258 4 16C4 22.6274 9.37258 28 16 28Z" stroke="#393939" stroke-width="1.5" stroke-linecap="round" stroke-linejoin="round"/>
<path d="M12 13.333H12.0133" stroke="#393939" stroke-width="1.5" stroke-linecap="round" stroke-linejoin="round"/>
<path d="M20 13.333H20.0133" stroke="#393939" stroke-width="1.5" stroke-linecap="round" stroke-linejoin="round"/>
<path d="M12.667 20C13.1015 20.4435 13.6201 20.7958 14.1925 21.0363C14.7649 21.2768 15.3795 21.4007 16.0003 21.4007C16.6212 21.4007 17.2358 21.2768 17.8082 21.0363C18.3805 20.7958 18.8992 20.4435 19.3337 20" stroke="#393939" stroke-width="1.5" stroke-linecap="round" stroke-linejoin="round"/>
</svg>
