<svg width="414" height="99" viewBox="0 0 414 99" fill="none" xmlns="http://www.w3.org/2000/svg">
<path d="M0 14H414V99C371.5 -10 80 139.5 0 71V14Z" fill="#3DDEBD"/>
<path d="M0 0H414V85C373.5 -14 88 129.5 0 71V0Z" fill="#061775"/>
<path fill-rule="evenodd" clip-rule="evenodd" d="M39.9788 41.2564V41.2604C40.0559 41.2591 40.1331 41.2584 40.2103 41.2584C43.7138 41.2584 47.0739 42.6553 49.5513 45.1417C52.0287 47.6281 53.4205 51.0005 53.4205 54.5168H40.2103L27.0001 54.5168C27.0001 54.4325 27.0009 54.3483 27.0025 54.2642H27.0004V28.1041C27.0001 28.0694 27 28.0347 27 28L40.2102 28L53.4204 28C53.4203 31.5164 52.0286 34.8887 49.5512 37.3751C47.0738 39.8615 43.7137 41.2584 40.2102 41.2584C40.133 41.2584 40.0559 41.2577 39.9788 41.2564Z" fill="white"/>
<path d="M75.0503 40.1525C75.8672 40.5803 76.5065 41.1685 76.9682 41.9171C77.43 42.6656 77.6608 43.5301 77.6608 44.5104C77.6608 46.0432 77.1192 47.3176 76.0359 48.3335C74.9526 49.3495 73.6296 49.8575 72.0668 49.8575H64.0754V31.1427H71.4808C73.008 31.1427 74.2956 31.6418 75.3433 32.6399C76.4088 33.6202 76.9416 34.85 76.9416 36.3294C76.9416 37.9513 76.3112 39.2257 75.0503 40.1525ZM71.4808 34.0301H67.1388V38.9494H71.4808C72.1556 38.9494 72.7239 38.7177 73.1856 38.2543C73.6474 37.7731 73.8782 37.1849 73.8782 36.4898C73.8782 35.7947 73.6474 35.2154 73.1856 34.752C72.7239 34.2708 72.1556 34.0301 71.4808 34.0301ZM72.0668 46.97C72.7772 46.97 73.3721 46.7205 73.8516 46.2214C74.3488 45.7046 74.5974 45.0807 74.5974 44.35C74.5974 43.6192 74.3488 43.0043 73.8516 42.5052C73.3721 41.9884 72.7772 41.7299 72.0668 41.7299H67.1388V46.97H72.0668Z" fill="white"/>
<path d="M83.0244 38.7356C83.7525 37.078 85.12 36.2492 87.1267 36.2492V39.3772C86.0257 39.3059 85.0667 39.5733 84.2498 40.1793C83.4329 40.7674 83.0244 41.7477 83.0244 43.1201V49.8575H80.1475V36.4898H83.0244V38.7356Z" fill="white"/>
<path d="M91.9694 33.9499C91.6142 34.3064 91.188 34.4846 90.6908 34.4846C90.1935 34.4846 89.7584 34.3064 89.3855 33.9499C89.0303 33.5756 88.8528 33.139 88.8528 32.6399C88.8528 32.1408 89.0303 31.7131 89.3855 31.3566C89.7407 30.9823 90.1758 30.7952 90.6908 30.7952C91.2058 30.7952 91.6409 30.9823 91.996 31.3566C92.3512 31.7131 92.5288 32.1408 92.5288 32.6399C92.5288 33.139 92.3423 33.5756 91.9694 33.9499ZM89.2523 49.8575V36.4898H92.1292V49.8575H89.2523Z" fill="white"/>
<path d="M106.018 31.1427H108.895V49.8575H106.018V47.9325C104.935 49.4475 103.381 50.205 101.357 50.205C99.5275 50.205 97.9647 49.5277 96.6683 48.1731C95.3719 46.8007 94.7237 45.1342 94.7237 43.1736C94.7237 41.1952 95.3719 39.5287 96.6683 38.1741C97.9647 36.8195 99.5275 36.1422 101.357 36.1422C103.381 36.1422 104.935 36.8908 106.018 38.388V31.1427ZM98.7994 46.2482C99.5985 47.0502 100.602 47.4513 101.809 47.4513C103.017 47.4513 104.02 47.0502 104.82 46.2482C105.619 45.4283 106.018 44.4034 106.018 43.1736C106.018 41.9438 105.619 40.9279 104.82 40.1258C104.02 39.3059 103.017 38.896 101.809 38.896C100.602 38.896 99.5985 39.3059 98.7994 40.1258C98.0002 40.9279 97.6006 41.9438 97.6006 43.1736C97.6006 44.4034 98.0002 45.4283 98.7994 46.2482Z" fill="white"/>
<path d="M122.85 36.4898H125.674V49.2425C125.674 51.2744 125.008 52.834 123.676 53.9212C122.344 55.0085 120.728 55.5521 118.828 55.5521C115.756 55.5521 113.651 54.4737 112.515 52.3171L114.992 50.8734C115.685 52.2458 116.981 52.932 118.881 52.932C120.124 52.932 121.092 52.6023 121.785 51.9428C122.495 51.3012 122.85 50.4011 122.85 49.2425V47.6117C121.767 49.1623 120.222 49.9377 118.215 49.9377C116.333 49.9377 114.744 49.2693 113.447 47.9325C112.151 46.5779 111.503 44.9471 111.503 43.0399C111.503 41.1328 112.151 39.5109 113.447 38.1741C114.744 36.8195 116.333 36.1422 118.215 36.1422C120.222 36.1422 121.767 36.9176 122.85 38.4682V36.4898ZM115.578 46.0343C116.395 46.8364 117.407 47.2374 118.615 47.2374C119.823 47.2374 120.826 46.8364 121.625 46.0343C122.442 45.2322 122.85 44.2341 122.85 43.0399C122.85 41.8458 122.442 40.8476 121.625 40.0456C120.826 39.2435 119.823 38.8425 118.615 38.8425C117.407 38.8425 116.395 39.2435 115.578 40.0456C114.779 40.8476 114.379 41.8458 114.379 43.0399C114.379 44.2341 114.779 45.2322 115.578 46.0343Z" fill="white"/>
<path d="M131.292 44.4034C131.505 45.4194 131.993 46.2036 132.757 46.7562C133.52 47.2909 134.453 47.5582 135.554 47.5582C137.081 47.5582 138.226 47.0057 138.99 45.9006L141.361 47.2909C140.047 49.2336 138.102 50.205 135.527 50.205C133.36 50.205 131.611 49.5455 130.279 48.2266C128.947 46.8898 128.281 45.2055 128.281 43.1736C128.281 41.1774 128.938 39.5109 130.253 38.1741C131.567 36.8195 133.254 36.1422 135.314 36.1422C137.267 36.1422 138.866 36.8284 140.109 38.2008C141.37 39.5733 142 41.2398 142 43.2004C142 43.5034 141.964 43.9044 141.893 44.4034H131.292ZM131.265 42.0507H139.096C138.901 40.9635 138.448 40.1436 137.738 39.5911C137.045 39.0386 136.228 38.7623 135.287 38.7623C134.222 38.7623 133.334 39.0564 132.623 39.6446C131.913 40.2327 131.46 41.0348 131.265 42.0507Z" fill="white"/>
</svg>
